<svg xmlns="http://www.w3.org/2000/svg" viewBox="0 0 512 512" style="enable-background:new 0 0 512 512;" xml:space="preserve">
<style type="text/css">
	.st0{fill:#198754;}
	.st1{fill:#FFFFFF;}
</style>
<circle class="st0" cx="256" cy="256" r="256"/>
<g>
	<path class="st1" d="M386.3,125.7c-9.1-9.1-23.9-9.1-33,0l-28.4,28.4c-3.1,3.1-4.7,7.4-4.5,11.8c0.5,10.6-3.3,21.3-11.2,29.2l-39.6,39.6
		c-7.9,7.9-18.6,11.7-29.2,11.2c-4.4-0.2-8.7,1.4-11.8,4.5l-28.4,28.4c-9.1,9.1-9.1,23.9,0,33l42.7,42.7l-99.4,99.4
		c-5.9,5.9-5.9,15.4,0,21.2l21.2,21.2c5.9,5.9,15.4,5.9,21.2,0l99.4-99.4l42.7,42.7c9.1,9.1,23.9,9.1,33,0l28.4-28.4
		c3.1-3.1,4.7-7.4,4.5-11.8c-0.5-10.6,3.3-21.3,11.2-29.2l39.6-39.6c7.9-7.9,18.6-11.7,29.2-11.2c4.4,0.2,8.7-1.4,11.8-4.5l28.4-28.4
		c9.1-9.1,9.1-23.9,0-33L386.3,125.7z"/>
</g>
</svg>
