<svg xmlns="http://www.w3.org/2000/svg" viewBox="0 0 512 512" style="enable-background:new 0 0 512 512;" xml:space="preserve">
<style type="text/css">
	.st0{fill:#0D6EFD;}
	.st1{fill:#FFFFFF;}
</style>
<circle class="st0" cx="256" cy="256" r="256"/>
<g>
	<path class="st1" d="M394.7,298.7H117.3c-11.8,0-21.3-9.6-21.3-21.3v-42.7c0-35.3,28.7-64,64-64h192c35.3,0,64,28.7,64,64v42.7
		C416,289.1,406.5,298.7,394.7,298.7z M160,341.3c0,11.8,9.6,21.3,21.3,21.3h42.7c11.8,0,21.3-9.6,21.3-21.3v-21.3h-85.3V341.3z
		 M266.7,320v21.3c0,11.8,9.6,21.3,21.3,21.3h42.7c11.8,0,21.3-9.6,21.3-21.3V320H266.7z M128,213.3c-11.8,0-21.3,9.6-21.3,21.3
		v42.7h32V256C138.7,232.5,128,213.3,128,213.3z M384,213.3c0,0-10.7,19.2-10.7,42.7v21.3h32v-42.7
		C405.3,222.9,395.8,213.3,384,213.3z"/>
</g>
</svg>
